<svg width="16" height="17" viewBox="0 0 16 17" fill="none" xmlns="http://www.w3.org/2000/svg">
    <mask id="rjl2u1e0ma" fill="#fff">
        <path d="M3.708 8.255c0-1.111.488-1.753 1.319-1.753.681 0 1.138.47 1.186 1.107H7.36V7.5c-.052-1.186-1.024-2-2.342-2C3.414 5.5 2.5 6.55 2.5 8.251v.747c0 1.7.905 2.73 2.518 2.73 1.314 0 2.285-.792 2.342-1.939v-.114H6.213c-.048.615-.496 1.05-1.186 1.05-.84 0-1.319-.62-1.319-1.727v-.743zm6.14 0c0-1.111.488-1.753 1.318-1.753.682 0 1.139.47 1.187 1.107H13.5V7.5c-.053-1.186-1.024-2-2.342-2-1.604 0-2.518 1.05-2.518 2.751v.747c0 1.7.905 2.73 2.518 2.73 1.314 0 2.285-.792 2.342-1.939v-.114h-1.147c-.048.615-.497 1.05-1.187 1.05-.839 0-1.318-.62-1.318-1.727v-.743z"/>
    </mask>
    <path d="M3.708 8.255c0-1.111.488-1.753 1.319-1.753.681 0 1.138.47 1.186 1.107H7.36V7.5c-.052-1.186-1.024-2-2.342-2C3.414 5.5 2.5 6.55 2.5 8.251v.747c0 1.7.905 2.73 2.518 2.73 1.314 0 2.285-.792 2.342-1.939v-.114H6.213c-.048.615-.496 1.05-1.186 1.05-.84 0-1.319-.62-1.319-1.727v-.743zm6.14 0c0-1.111.488-1.753 1.318-1.753.682 0 1.139.47 1.187 1.107H13.5V7.5c-.053-1.186-1.024-2-2.342-2-1.604 0-2.518 1.05-2.518 2.751v.747c0 1.7.905 2.73 2.518 2.73 1.314 0 2.285-.792 2.342-1.939v-.114h-1.147c-.048.615-.497 1.05-1.187 1.05-.839 0-1.318-.62-1.318-1.727v-.743z" fill="#fff"/>
    <path d="m6.213 7.609-1.496.113.105 1.387h1.391v-1.5zm1.147 0v1.5h1.5v-1.5h-1.5zm0-.109h1.5v-.033l-.001-.033L7.36 7.5zm0 2.289 1.498.074.002-.037V9.79h-1.5zm0-.114h1.5v-1.5h-1.5v1.5zm-1.147 0v-1.5H4.826l-.108 1.383 1.495.117zm6.14-2.066-1.496.113.105 1.387h1.391v-1.5zm1.147 0v1.5H15v-1.5h-1.5zm0-.109H15v-.034l-.002-.033L13.5 7.5zm0 2.289 1.498.074.002-.037V9.79h-1.5zm0-.114H15v-1.5h-1.5v1.5zm-1.147 0v-1.5h-1.387l-.108 1.383 1.495.117zm-7.145-1.42c0-.171.02-.284.037-.35.017-.065.03-.068.008-.04a.383.383 0 0 1-.137.109c-.063.03-.101.028-.089.028v-3c-.847 0-1.636.351-2.169 1.056-.49.65-.65 1.449-.65 2.197h3zm-.181-.253a.234.234 0 0 1-.076-.018.405.405 0 0 1-.132-.085.31.31 0 0 1-.102-.177l2.992-.226c-.104-1.372-1.17-2.494-2.682-2.494v3zm1.186 1.107H7.36v-3H6.213v3zm2.647-1.5V7.5h-3v.109h3zm-.001-.175C8.764 5.287 6.969 4 5.018 4v3c.353 0 .567.107.675.199.096.081.16.19.168.367l2.998-.132zM5.018 4c-1.144 0-2.21.386-2.974 1.232C1.3 6.058 1 7.144 1 8.251h3c0-.594.158-.883.27-1.008.094-.104.288-.243.748-.243V4zM1 8.251v.747h3v-.747H1zm0 .747c0 1.104.295 2.189 1.045 3.012.768.844 1.835 1.218 2.973 1.218v-3c-.475 0-.667-.141-.755-.237C4.157 9.874 4 9.594 4 8.998H1zm4.018 4.23c1.91 0 3.734-1.23 3.84-3.365l-2.996-.148a.405.405 0 0 1-.156.316c-.108.09-.328.197-.688.197v3zM8.86 9.789v-.114h-3v.114h3zm-1.5-1.614H6.213v3H7.36v-3zM4.718 9.558a.395.395 0 0 1 .134-.237c.107-.098.197-.096.175-.096v3c.668 0 1.327-.216 1.843-.684.515-.468.788-1.1.838-1.75l-2.99-.233zm.309-.333c-.024 0 .008-.004.07.024.065.03.116.076.146.115.026.035.017.038 0-.022a1.353 1.353 0 0 1-.035-.344h-3c0 .741.156 1.542.654 2.19.542.708 1.336 1.037 2.165 1.037v-3zm.181-.227v-.743h-3v.743h3zm6.14-.743c0-.17.02-.284.037-.35.018-.065.03-.068.008-.04a.383.383 0 0 1-.137.108c-.063.03-.102.029-.09.029v-3c-.847 0-1.636.352-2.168 1.057-.49.649-.65 1.448-.65 2.196h3zm-.182-.253c-.003 0-.032 0-.075-.018a.405.405 0 0 1-.132-.085.311.311 0 0 1-.102-.177l2.992-.226c-.104-1.373-1.17-2.494-2.683-2.494v3zm1.187 1.107H13.5v-3h-1.147v3zM15 7.609V7.5h-3v.109h3zm-.002-.176C14.903 5.288 13.11 4 11.159 4v3c.352 0 .567.107.674.199a.476.476 0 0 1 .17.368l2.996-.134zM11.159 4c-1.144 0-2.21.386-2.974 1.232-.745.826-1.044 1.912-1.044 3.019h3c0-.594.158-.883.27-1.008.094-.104.288-.243.748-.243V4zM7.14 8.251v.747h3v-.747h-3zm0 .747c0 1.104.295 2.189 1.045 3.012.768.844 1.835 1.218 2.973 1.218v-3c-.475 0-.667-.141-.755-.237-.106-.117-.263-.397-.263-.993h-3zm4.018 4.23c1.91 0 3.734-1.23 3.84-3.365l-2.996-.148a.405.405 0 0 1-.156.316c-.108.09-.328.197-.688.197v3zM15 9.789v-.114h-3v.114h3zm-1.5-1.614h-1.147v3H13.5v-3zm-2.643 1.383a.396.396 0 0 1 .135-.238c.107-.097.196-.095.174-.095v3c.668 0 1.327-.216 1.842-.684.516-.467.79-1.1.84-1.75l-2.99-.233zm.309-.333c-.024 0 .009-.004.07.025.066.03.117.075.147.115.027.034.017.037 0-.023a1.352 1.352 0 0 1-.035-.344h-3c0 .741.156 1.541.653 2.19.542.708 1.336 1.037 2.165 1.037v-3zm.182-.227v-.743h-3v.743h3z" fill="#fff" mask="url(#rjl2u1e0ma)"/>
    <mask id="64ur3xe9ib" fill="#fff">
        <path d="M14 3.5a1 1 0 0 1 1 1v8a1 1 0 0 1-1 1H2a1 1 0 0 1-1-1v-8a1 1 0 0 1 1-1h12zm-12-1a2 2 0 0 0-2 2v8a2 2 0 0 0 2 2h12a2 2 0 0 0 2-2v-8a2 2 0 0 0-2-2H2z"/>
    </mask>
    <path d="M14 3.5a1 1 0 0 1 1 1v8a1 1 0 0 1-1 1H2a1 1 0 0 1-1-1v-8a1 1 0 0 1 1-1h12zm-12-1a2 2 0 0 0-2 2v8a2 2 0 0 0 2 2h12a2 2 0 0 0 2-2v-8a2 2 0 0 0-2-2H2z" fill="#fff"/>
    <path d="M14 3.5V2v1.5zm-13 9H-.5 1zm1-9V2v1.5zm0-1V1v1.5zm-2 2h-1.5H0zm0 8h-1.5H0zm14-10V1v1.5zM14 5a.5.5 0 0 1-.354-.146l2.122-2.122A2.5 2.5 0 0 0 14 2v3zm-.354-.146A.5.5 0 0 1 13.5 4.5h3a2.5 2.5 0 0 0-.732-1.768l-2.122 2.122zM13.5 4.5v8h3v-8h-3zm0 8a.5.5 0 0 1 .146-.354l2.122 2.122A2.5 2.5 0 0 0 16.5 12.5h-3zm.146-.354A.5.5 0 0 1 14 12v3a2.5 2.5 0 0 0 1.768-.732l-2.122-2.122zM14 12H2v3h12v-3zM2 12a.5.5 0 0 1 .354.146L.232 14.268A2.5 2.5 0 0 0 2 15v-3zm.354.146a.5.5 0 0 1 .146.354h-3a2.5 2.5 0 0 0 .732 1.768l2.122-2.122zm.146.354v-8h-3v8h3zm0-8a.5.5 0 0 1-.146.354L.232 2.732A2.5 2.5 0 0 0-.5 4.5h3zm-.146.354A.5.5 0 0 1 2 5V2a2.5 2.5 0 0 0-1.768.732l2.122 2.122zM2 5h12V2H2v3zm0-4A3.5 3.5 0 0 0-.475 2.025l2.121 2.121A.5.5 0 0 1 2 4V1zM-.475 2.025A3.5 3.5 0 0 0-1.5 4.5h3a.5.5 0 0 1 .146-.354l-2.12-2.12zM-1.5 4.5v8h3v-8h-3zm0 8a3.5 3.5 0 0 0 1.025 2.475l2.121-2.121A.5.5 0 0 1 1.5 12.5h-3zm1.025 2.475A3.5 3.5 0 0 0 2 16v-3a.5.5 0 0 1-.354-.146l-2.12 2.12zM2 16h12v-3H2v3zm12 0a3.5 3.5 0 0 0 2.475-1.025l-2.121-2.121A.5.5 0 0 1 14 13v3zm2.475-1.025A3.5 3.5 0 0 0 17.5 12.5h-3a.5.5 0 0 1-.146.354l2.12 2.12zM17.5 12.5v-8h-3v8h3zm0-8a3.5 3.5 0 0 0-1.025-2.475l-2.121 2.121a.5.5 0 0 1 .146.354h3zm-1.025-2.475A3.5 3.5 0 0 0 14 1v3a.5.5 0 0 1 .354.146l2.12-2.12zM14 1H2v3h12V1z" fill="#fff" mask="url(#64ur3xe9ib)"/>
</svg>
