<svg width="15" height="15" viewBox="0 0 15 15" fill="none" xmlns="http://www.w3.org/2000/svg"><path fill-rule="evenodd" clip-rule="evenodd" d="M7.224.417C3.464.417.416 3.397.416 7.074s3.048 6.658 6.808 6.658a6.875 6.875 0 0 0 4.251-1.457l2.213 2.159.059.049a.533.533 0 0 0 .683-.05.505.505 0 0 0-.001-.726l-2.187-2.133a6.554 6.554 0 0 0 1.79-4.5c0-3.677-3.048-6.657-6.808-6.657zm0 1.025c3.181 0 5.76 2.522 5.76 5.632 0 3.111-2.579 5.633-5.76 5.633-3.18 0-5.76-2.522-5.76-5.633 0-3.11 2.58-5.632 5.76-5.632z" fill="#368C8B"/></svg>