<svg width="16" height="17" viewBox="0 0 16 17" fill="none" xmlns="http://www.w3.org/2000/svg">
    <g clip-path="url(#1pf8x189pa)" stroke="#121212" stroke-width="1.5" stroke-linecap="round" stroke-linejoin="round">
        <path d="M11.333 14.5v-1.333A2.667 2.667 0 0 0 8.666 10.5H3.333a2.667 2.667 0 0 0-2.666 2.667V14.5M6 7.833A2.667 2.667 0 1 0 6 2.5a2.667 2.667 0 0 0 0 5.333zM15.334 14.5v-1.333a2.666 2.666 0 0 0-2-2.58M10.666 2.587a2.667 2.667 0 0 1 0 5.166"/>
    </g>
    <defs>
        <clipPath id="1pf8x189pa">
            <path fill="#fff" transform="translate(0 .5)" d="M0 0h16v16H0z"/>
        </clipPath>
    </defs>
</svg>
