<svg id="Layer_1" xmlns="http://www.w3.org/2000/svg" viewBox="0 0 10 25"><style>.st0{enable-background:new}.st1{fill:#444}</style><g id="Group_147"><g class="st0"><path class="st1" d="M424.3 312c.1.1.1.2.1.2s0 .2-.1.2l-.6.6c-.1.1-.2.1-.3.1s-.2 0-.2-.1l-3.5-3.5-3.5 3.5c-.1.1-.1.1-.2.1s-.2 0-.3-.1l-.6-.6c-.1-.1-.1-.2-.1-.2s0-.2.1-.2l4.4-4.3c.1-.1.1-.1.2-.1s.2 0 .3.1l4.3 4.3z" transform="translate(-415 -303)"/></g><g class="st0"><path class="st1" d="M415.1 318.8c-.1-.1-.1-.2-.1-.2s0-.2.1-.2l.6-.6c.1-.1.2-.1.3-.1s.2 0 .2.1l3.5 3.5 3.5-3.5c.1-.1.1-.1.2-.1s.2 0 .3.1l.6.6c.1.1.1.2.1.2s0 .2-.1.2l-4.3 4.3c-.1.1-.2.1-.3.1s-.2 0-.3-.1l-4.3-4.3z" transform="translate(-415 -303)"/></g></g></svg>